<svg xmlns="http://www.w3.org/2000/svg" width="512" height="512" viewBox="0 0 512 512"><g fill-rule="evenodd" clip-rule="evenodd" fill="#008cdb"><path d="M185.188 351.236c-12.377-12.097-24.783-24.549-36.783-36.596-11.987-12.033-24.382-24.47-36.723-36.532l-2.324-2.275 2.215-2.377c3.878-4.156 7.963-8.201 11.916-12.096 3.904-3.861 7.938-7.853 11.724-11.905l2.174-2.339 2.42 2.069c5.607 4.802 10.784 10.095 15.79 15.215a559.305 559.305 0 0 0 6.427 6.503V140.908c0-26.029 5.207-43.609 16.384-55.367 10.992-11.55 27.915-17.543 53.252-18.874 8.413-.438 16.422-.667 23.798-.667 29.958 0 52.347 3.703 66.544 11.006 11.961 6.146 20.318 14.903 25.551 26.764 5.079 11.511 7.097 25.77 6.167 43.59l-.167 3.145h-58.498l.322-3.613c1.299-14.592-.844-25.279-6.368-31.771-3.822-4.498-9.191-6.941-16.417-7.467-2.772-.202-5.815-.296-9.303-.296-3.185 0-6.414.079-9.534.153-2.712.076-5.514.135-8.235.15-21.156.116-31.186 8.959-32.529 28.668-1.01 14.758-.69 29.792-.349 45.712.175 8.194.353 16.661.353 25.354v53.186c0 1.046-.094 2.662-.211 4.72-.09 1.521-.223 3.809-.296 5.96.182-.195.367-.394.561-.596.5-.548.748-.813.924-.986 2.394-2.388 4.779-4.712 7.086-6.961 4.596-4.476 8.932-8.707 13.138-13.254l2.262-2.459 2.446 2.286c4.157 3.876 8.194 7.958 12.102 11.905 3.855 3.906 7.849 7.943 11.905 11.725l2.489 2.324-2.378 2.437c-12.098 12.37-24.552 24.781-36.598 36.779-12.03 11.988-24.47 24.376-36.538 36.72l-2.322 2.381-2.377-2.326z"/><path d="M260.646 446c-21.69 0-39.499-.334-54.811-4.551-16.754-4.613-29.23-13.194-37.091-25.516-8.153-12.789-11.53-29.961-10.038-51.053l.219-3.089h58.371l-.246 3.546c-1.764 25.567 4.835 37.697 21.386 39.313 1.951.188 4.294.285 7.146.285 2.586 0 5.37-.083 8.061-.15 2.798-.075 5.685-.157 8.479-.157 16.043 0 25.832-1.586 31.61-10.005 5.283-7.703 5.696-18.934 5.696-33.945V241.276c-4.911 4.94-10.194 10.338-15.33 15.578-2.029 2.069-4.023 4.112-5.937 6.054l-2.154 2.193-2.352-1.969c-4.937-4.119-9.421-8.729-13.756-13.176-3.336-3.418-6.779-6.96-10.35-10.18l-2.532-2.287 2.354-2.47c17.646-18.507 36.091-36.776 53.934-54.442 6.32-6.271 12.855-12.733 19.259-19.125l2.324-2.316 2.344 2.294c12.317 12.029 24.659 24.425 36.602 36.413 11.924 11.968 24.254 24.342 36.534 36.359l2.271 2.211-2.112 2.365a299.944 299.944 0 0 1-24.28 24.286l-2.349 2.092-2.219-2.233c-2.279-2.298-4.646-4.728-6.936-7.074-4.746-4.865-9.611-9.869-14.347-14.345V352.18c0 1.848.007 3.688.011 5.529.049 18.652.098 36.262-4.616 50.202-4.995 14.776-15.464 25.396-31.108 31.581-15.216 6.002-35.036 6.508-54.037 6.508z"/></g></svg>